PathFileType	4	(X/Y/Z)	D:\Share\Shared_Data\Ergonomics\Sit To Stand Pertubation\S3\Unperturbed.trc
DataRate	CameraRate	NumFrames	NumMarkers	Units	OrigDataRate	OrigDataStartFrame	OrigNumFrames	
100	100	14	18	m	100	3625	231
Frame#	Time	R_Thigh			R_ASIS			R_Pelvis			V_Sacral			L_Pelvis			L_ASIS			Clavical			R_Acromium			L_Acromium			Sternum			Torso			R_Thigh_Med			R_Thigh_Lat			R_Shank_Med			R_Shank_Lat			R_Shank			R_Heel			R_Toe			
		X1	Y1	Z1	X2	Y2	Z2	X3	Y3	Z3	X4	Y4	Z4	X5	Y5	Z5	X6	Y6	Z6	X7	Y7	Z7	X8	Y8	Z8	X9	Y9	Z9	X10	Y10	Z10	X11	Y11	Z11	X12	Y12	Z12	X13	Y13	Z13	X14	Y14	Z14	X15	Y15	Z15	X16	Y16	Z16	X17	Y17	Z17	X18	Y18	Z18	

3625	36.24	0.35860498	0.66573425	0.11462396	0.28822293	0.87664099	0.1273214	0.18663667	0.90888342	0.18044371	0.094987679	0.96229736	-0.011649693	0.20115738	0.92353235	-0.21156349	0.29398175	0.87460388	-0.15197685	0.42935898	1.2739769	-0.010439457	0.39898547	1.3443337	0.15339326	0.41291245	1.3427568	-0.1619799	0.42815463	1.1907825	-0.0066828156	0.43141284	1.257467	-0.073856422	0.39188614	0.45848834	0.072465836	0.35938553	0.44548215	0.17539168	0.26454263	0.10689604	0.09240905	0.23819446	0.099899231	0.17131444	0.27777139	0.2792355	0.18726451	0.18237767	0.054784222	0.12038583	0.40158502	0.048072247	0.13806448
3626	36.25	0.36174487	0.66668274	0.1143379	0.29386554	0.88301276	0.12696287	0.19185722	0.91390778	0.17989363	0.099711647	0.96645306	-0.012007721	0.20619519	0.92836084	-0.2118213	0.29960843	0.88069934	-0.15243883	0.428746	1.2831311	-0.010579491	0.39680606	1.3528413	0.15336664	0.4107142	1.351562	-0.16241507	0.4288367	1.2002031	-0.0068144445	0.4310838	1.2668501	-0.07421537	0.39031769	0.45890201	0.070815575	0.35771286	0.44637878	0.1734469	0.26467023	0.10672065	0.092615349	0.23834012	0.099703156	0.17100697	0.27672266	0.27991782	0.18615689	0.18243503	0.054863636	0.12031644	0.40158401	0.048351727	0.13820509
3627	36.26	0.36482159	0.66747302	0.11396564	0.29945718	0.88903015	0.12663087	0.19703786	0.91862036	0.1793795	0.10438579	0.97025171	-0.012354936	0.21124834	0.9328493	-0.21209059	0.30521698	0.8864408	-0.15285799	0.427978	1.29184	-0.010715806	0.39449585	1.3608831	0.15333772	0.40839539	1.3599559	-0.16282497	0.42935452	1.2092062	-0.0069859104	0.43059152	1.2758049	-0.074566902	0.38869611	0.45925076	0.069057732	0.35601382	0.44724518	0.17146959	0.2647962	0.106521	0.092861038	0.23845923	0.099525925	0.17073044	0.27564102	0.2805722	0.18502423	0.18247809	0.054919807	0.12025481	0.40158008	0.048648556	0.13834531
3628	36.27	0.36783459	0.66812543	0.11349049	0.305034	0.89468365	0.12633118	0.20217506	0.92300726	0.17892374	0.10900826	0.97369446	-0.012694201	0.2163222	0.93700031	-0.21237625	0.31080701	0.89182031	-0.15322908	0.42705899	1.3000863	-0.010850655	0.3920784	1.3684468	0.15330957	0.40598312	1.3679124	-0.16320689	0.42971893	1.2177677	-0.007192512	0.42994751	1.2843057	-0.074906921	0.38701614	0.45953674	0.067203659	0.35429126	0.4480795	0.1694794	0.26489951	0.10632968	0.093070457	0.23853127	0.099456802	0.1705307	0.27452545	0.28119543	0.18387567	0.18250394	0.054950592	0.12020312	0.40157211	0.048933632	0.13846808
3629	36.28	0.37078458	0.66865936	0.11290128	0.31062177	0.89996967	0.12607177	0.20726357	0.92705945	0.17855627	0.11357757	0.97678485	-0.013025749	0.22141107	0.94082336	-0.21267798	0.31637381	0.89683545	-0.15355319	0.42598764	1.3078593	-0.01098771	0.38957632	1.3755262	0.1532877	0.40350342	1.3754108	-0.16355795	0.42993988	1.2258671	-0.0074273767	0.42916296	1.2923323	-0.075230858	0.38527524	0.45976465	0.06527195	0.35254919	0.44887814	0.16749408	0.26495496	0.10618513	0.093152061	0.23853984	0.099563774	0.170437	0.27337268	0.281785	0.18271872	0.18250923	0.054953907	0.12016274	0.40155569	0.049180916	0.13856236
3630	36.29	0.37367334	0.66909003	0.11219339	0.31621252	0.90488898	0.12586343	0.21229698	0.93077136	0.17831293	0.11809231	0.9795296	-0.013347346	0.22650026	0.94433295	-0.21299203	0.32190994	0.90149194	-0.15383395	0.42476459	1.3151538	-0.011129259	0.38701065	1.3821211	0.15327965	0.40097891	1.3824364	-0.16387566	0.43002682	1.2334873	-0.0076812968	0.42824847	1.29987	-0.075534508	0.38347421	0.45993982	0.063289463	0.35079373	0.44963696	0.16552966	0.26494443	0.1061134	0.093047325	0.23848955	0.099836319	0.1704351	0.27217776	0.28234024	0.1815602	0.18249034	0.05492828	0.12013485	0.40152567	0.049363785	0.13862125
3631	36.3	0.3765043	0.66942767	0.11136925	0.32176746	0.90944531	0.12571743	0.21727307	0.93414026	0.17822493	0.12255093	0.98193756	-0.01365523	0.23157162	0.9475484	-0.21330861	0.32740662	0.90580328	-0.15407521	0.42340356	1.3219685	-0.011272039	0.38439938	1.3882367	0.15329283	0.39842825	1.3889796	-0.16415788	0.42998917	1.2406157	-0.0079430938	0.4272149	1.3069094	-0.075813995	0.38161911	0.46006479	0.061289238	0.34903381	0.45035165	0.16359912	0.26486383	0.10611635	0.092762146	0.23840686	0.100184	0.17047429	0.27093546	0.28286127	0.18040625	0.18244394	0.054872772	0.1201199	0.40147827	0.049455818	0.13864
3632	36.31	0.37928198	0.669677	0.11043822	0.32723837	0.91364526	0.12563969	0.22219986	0.93716632	0.17830563	0.12695135	0.98401874	-0.013944915	0.23660744	0.95049176	-0.21361183	0.33285358	0.90978992	-0.15428018	0.42193405	1.3283044	-0.011406831	0.38175519	1.3938818	0.15333237	0.39586539	1.3950367	-0.16440306	0.42983627	1.2472443	-0.0082003422	0.42607574	1.3134458	-0.076064484	0.37972421	0.46013828	0.059303978	0.34728192	0.45101724	0.16171043	0.2647226	0.10617284	0.092362587	0.23831848	0.10050455	0.17050511	0.26964346	0.28334888	0.17926247	0.18236778	0.054787182	0.12011654	0.40141022	0.049455509	0.13862357
3633	36.32	0.38201172	0.66983722	0.10941591	0.33258795	0.9174978	0.12562716	0.2270934	0.93985364	0.17854388	0.1312903	0.98578351	-0.01421137	0.24159021	0.95318506	-0.21388498	0.33823938	0.91347681	-0.15445195	0.42039404	1.334162	-0.011521886	0.37908521	1.3990673	0.15339949	0.39330002	1.4006073	-0.16461046	0.42957742	1.2533688	-0.0084404297	0.42484821	1.3194771	-0.076279716	0.3778132	0.46015634	0.057359169	0.34555331	0.45162799	0.15986713	0.26453662	0.10625041	0.091940338	0.2382336	0.10073887	0.17050467	0.26830743	0.28380347	0.17813509	0.18226242	0.054672031	0.12012074	0.401319	0.049404766	0.138592
3634	36.33	0.38469949	0.66990338	0.10832351	0.33780066	0.92101672	0.12566942	0.23196587	0.94221509	0.17889944	0.13556273	0.98724329	-0.014448748	0.24650188	0.95564758	-0.21411478	0.34355103	0.91689062	-0.15459372	0.41882043	1.3395425	-0.011606424	0.37639215	1.4038043	0.15349243	0.39073883	1.4056948	-0.16478043	0.42922198	1.2589906	-0.0086515713	0.42355096	1.3250043	-0.076453201	0.3759202	0.46011752	0.055471992	0.34386371	0.45217899	0.15806851	0.26431888	0.10632099	0.091568199	0.23814557	0.10088258	0.17047743	0.26694452	0.28422482	0.17703079	0.18213312	0.054527878	0.12012527	0.40120511	0.049367538	0.13857153
3635	36.34	0.38735202	0.66986871	0.10718738	0.34288602	0.92422229	0.12575356	0.23681291	0.94427234	0.17930392	0.13976143	0.98840979	-0.01465037	0.25132367	0.95789423	-0.21429182	0.34877484	0.92005634	-0.15470963	0.41724234	1.3444485	-0.011652715	0.37367615	1.4081022	0.15360811	0.3881864	1.4103047	-0.16491463	0.42877985	1.2641165	-0.0088231115	0.42220215	1.3300306	-0.076579948	0.37408972	0.46002628	0.053653477	0.34222668	0.45266821	0.15630975	0.26407498	0.10636855	0.091280098	0.2380435	0.10097427	0.17044377	0.26558276	0.28461432	0.17595465	0.18199057	0.054353943	0.12011968	0.40107425	0.049400089	0.13858304
3636	36.35	0.38997525	0.66972693	0.10603838	0.34787057	0.92713837	0.12586889	0.24160834	0.94604608	0.17968372	0.14387787	0.98929468	-0.014809221	0.25603638	0.95993445	-0.21441093	0.353896	0.92299487	-0.15480533	0.41567764	1.3488845	-0.011657305	0.37093814	1.4119696	0.15374409	0.38564804	1.4144432	-0.16501614	0.42826147	1.2687576	-0.0089454746	0.42081723	1.3345651	-0.076657295	0.37236664	0.45989423	0.051908543	0.34065021	0.45309799	0.15458405	0.26380591	0.10638681	0.091078941	0.23792143	0.10106541	0.17042314	0.26425476	0.28497522	0.17490886	0.18184933	0.054147945	0.12009208	0.40093558	0.049543274	0.13863939
3637	36.36	0.39257065	0.66947467	0.10491058	0.35277701	0.92978711	0.12600744	0.24630397	0.94754834	0.17997621	0.14790324	0.98990845	-0.014919053	0.26062009	0.96177118	-0.21447197	0.35889917	0.92572076	-0.1548884	0.41413239	1.3528593	-0.011621468	0.36818472	1.4154161	0.15390057	0.38313177	1.4181189	-0.16508878	0.42767804	1.2729314	-0.0090105038	0.41940833	1.3386213	-0.076685112	0.37078302	0.45973682	0.050237362	0.33913358	0.45347464	0.15288734	0.26351108	0.10637473	0.090950783	0.23778174	0.10119027	0.17042163	0.26298666	0.28531244	0.1738933	0.18172415	0.053909668	0.12003366	0.40079932	0.049822887	0.13874704
3638	36.37	0.39513211	0.66911389	0.10383903	0.35760645	0.93218463	0.12616203	0.25083971	0.94879358	0.18012134	0.15182994	0.99026117	-0.014976043	0.26505511	0.96340051	-0.21447888	0.36376932	0.92824164	-0.15496783	0.41260275	1.3563859	-0.011550365	0.36543146	1.4184524	0.15408131	0.38064758	1.421342	-0.16513618	0.42704153	1.2766581	-0.0090121555	0.41798511	1.3422185	-0.076665596	0.36934979	0.4595708	0.048640179	0.33766452	0.45380777	0.15122195	0.26319055	0.10633386	0.09087513	0.23763187	0.10135425	0.17043105	0.261789	0.28563181	0.17290729	0.18162523	0.053647366	0.11994528	0.40067496	0.05024477	0.13890511
